<mxfile host="app.diagrams.net" modified="2023-11-10T15:19:10.992Z" agent="Mozilla/5.0 (Windows NT 10.0; Win64; x64) AppleWebKit/537.36 (KHTML, like Gecko) Chrome/116.0.0.0 Safari/537.36 OPR/102.0.0.0" etag="HRa5CRb_x2YpklWLUrjc" version="22.1.0" type="github">
  <diagram name="Page-1" id="e8k4Dpm2lTozbZvrrGJk">
    <mxGraphModel dx="1393" dy="804" grid="1" gridSize="10" guides="1" tooltips="1" connect="1" arrows="1" fold="1" page="1" pageScale="1" pageWidth="827" pageHeight="1169" math="0" shadow="0">
      <root>
        <mxCell id="0" />
        <mxCell id="1" parent="0" />
        <mxCell id="pcsVT6udnXXOX7vafc1i-1" value="Початок" style="ellipse;whiteSpace=wrap;html=1;aspect=fixed;" vertex="1" parent="1">
          <mxGeometry x="370" y="30" width="84" height="84" as="geometry" />
        </mxCell>
        <mxCell id="pcsVT6udnXXOX7vafc1i-2" value="" style="endArrow=classic;html=1;rounded=0;" edge="1" parent="1">
          <mxGeometry width="50" height="50" relative="1" as="geometry">
            <mxPoint x="411.5" y="114" as="sourcePoint" />
            <mxPoint x="412" y="180" as="targetPoint" />
          </mxGeometry>
        </mxCell>
      </root>
    </mxGraphModel>
  </diagram>
</mxfile>
